HIERARCHY
ROOT Root
{
  OFFSET 7.16766 12.0689 36.4227
  CHANNELS 6 Xposition Yposition Zposition Zrotation Xrotation Yrotation
  JOINT Spine
  {
    OFFSET 5.3114 0 0
    CHANNELS 3 Zrotation Xrotation Yrotation
    JOINT Spine1
    {
      OFFSET 2.79004 0 0
      CHANNELS 3 Zrotation Xrotation Yrotation
      JOINT Neck
      {
        OFFSET 1.43377 0 0
        CHANNELS 3 Zrotation Xrotation Yrotation
        JOINT Head
        {
          OFFSET 1.86043 0 0
          CHANNELS 3 Zrotation Xrotation Yrotation
          End Site
          {
            OFFSET 0 0 0
          }
        }
      }
      JOINT LeftArm
      {
        OFFSET 0.0387506 0 2.55754
        CHANNELS 3 Zrotation Xrotation Yrotation
        JOINT LeftForeArm
        {
          OFFSET 4.24845 0 0
          CHANNELS 3 Zrotation Xrotation Yrotation
          JOINT LeftHand
          {
            OFFSET 4.01008 0 0
            CHANNELS 3 Zrotation Xrotation Yrotation
            End Site
            {
              OFFSET 0 0 0
            }
          }
        }
      }
      JOINT RightArm
      {
        OFFSET 0.0387506 0 -2.55754
        CHANNELS 3 Zrotation Xrotation Yrotation
        JOINT RightForeArm
        {
          OFFSET -4.24845 0 0
          CHANNELS 3 Zrotation Xrotation Yrotation
          JOINT RightHand
          {
            OFFSET -4.01009 0 0
            CHANNELS 3 Zrotation Xrotation Yrotation
            End Site
            {
              OFFSET 0 0 0
            }
          }
        }
      }
    }
  }
  JOINT LeftUpLeg
  {
    OFFSET -1.23318 0 2.05692
    CHANNELS 3 Zrotation Xrotation Yrotation
    JOINT LeftLeg
    {
      OFFSET 5.46397 0 0
      CHANNELS 3 Zrotation Xrotation Yrotation
      JOINT LeftFoot
      {
        OFFSET 4.68898 0 0
        CHANNELS 3 Zrotation Xrotation Yrotation
        End Site
        {
          OFFSET 0 0 0
        }
      }
    }
  }
  JOINT RightUpLeg
  {
    OFFSET -1.24454 0 -2.05007
    CHANNELS 3 Zrotation Xrotation Yrotation
    JOINT RightLeg
    {
      OFFSET -5.46397 0 0
      CHANNELS 3 Zrotation Xrotation Yrotation
      JOINT RightFoot
      {
        OFFSET -4.68901 0 0
        CHANNELS 3 Zrotation Xrotation Yrotation
        End Site
        {
          OFFSET 0 0 0
        }
      }
    }
  }
}
MOTION
Frames:	15
Frame Time:	0.0416667
7.56821 12.3226 -23.0383 48.884 -82.7514 -38.351 -3.69431 2.06687 0.672784 -5.22412 0.566138 -1.55764 -1.37529 -3.17607 -10.4255 20.8566 -5.91741 11.2213 13.2488 -16.5546 -168.764 30.6093 2.09569 17.6483 1.9144 20.8395 174.097 -157.362 -26.6042 -166.101 32.0118 2.42027 18.4235 1.11792 12.5447 174.329 7.95977 -10.9112 164.36 -8.05908 -0.725162 -0.993 20.4193 -18.1858 -174.246 162.804 3.83699 -172.502 -81.0393 -1.21566 -2.91497 13.5998 -6.2572 178.251 
7.52671 12.2883 -23.2714 51.7675 -81.8768 -35.2927 -2.89839 -0.637384 0.423572 -5.5624 -0.227675 -0.810257 -1.36209 -2.27216 -8.19771 20.1301 -4.78212 7.17489 12.7872 -17.4454 -168.951 31.1334 2.21514 17.9384 1.86723 20.3944 174.114 -157.149 -26.0111 -165.068 31.8204 2.37494 18.318 1.05317 11.9084 174.343 9.1679 -11.8479 164.226 -8.13929 -0.733427 -0.993503 18.8325 -18.6895 -174.617 158.795 0.129371 -174.011 -77.7721 -1.46676 -2.75426 20.287 -11.4402 -179.649 
7.48646 12.242 -23.4954 56.8925 -80.9848 -30.193 -2.51537 -3.19652 0.284886 -5.65631 -0.992371 0.0105896 -1.30149 -1.45122 -6.10939 19.4691 -3.70301 3.55964 12.109 -18.3277 -169.227 31.4239 2.28188 18.0992 1.8267 20.0072 174.129 -157.101 -24.3278 -164.295 31.5099 2.30198 18.1467 1.08259 12.1837 174.338 10.1318 -12.6533 164.459 -8.27217 -0.785721 -0.994227 20.2438 -17.2159 -174.58 155.622 -3.78136 -175.953 -71.4814 -1.61394 -2.48925 23.5536 -14.7012 -177.822 
7.45166 12.2023 -23.7378 60.5285 -79.9433 -25.9299 -2.004 -5.16396 -0.771738 -5.56606 -1.58961 0.907289 -1.39651 -0.79686 -4.73451 19.0117 -2.69019 1.35244 11.166 -19.3534 -169.382 31.5894 2.32072 18.1904 1.78626 19.601 174.144 -156.991 -22.1785 -163.951 31.3661 2.26869 18.0672 1.07338 12.0951 174.34 11.5109 -12.5388 164.199 -8.15173 -0.776338 -0.995174 20.5565 -15.9137 -175.214 153.636 -8.56189 -177.077 -63.0909 -1.55735 -2.16302 23.3481 -15.4906 -177.518 
7.4134 12.1811 -23.9766 64.8753 -78.8792 -21.361 -1.97895 -6.78635 -1.44615 -5.24354 -2.0831 1.71005 -1.00134 -0.383197 -3.58282 18.0427 -1.99209 -0.166136 10.5394 -20.5924 -169.755 32.1395 2.45073 18.4939 1.7065 18.794 174.173 -157.107 -19.4443 -163.87 30.7454 2.1264 17.7238 1.10084 12.4295 174.334 12.7214 -12.3259 164.508 -8.10588 -0.780192 -0.99573 20.5949 -14.6632 -175.814 152.041 -13.6471 -178.44 -53.2865 -1.42239 -1.83048 23.9418 -14.9041 -177.461 
7.36751 12.1562 -24.2113 68.4181 -77.3204 -17.2522 -1.64447 -8.25615 -2.55881 -5.37983 -2.53053 2.31117 -1.13741 -0.262718 -2.49907 18.1913 -1.96997 -1.55211 10.0665 -21.6577 -170.014 32.2258 2.47163 18.5414 1.65795 18.3069 174.19 -156.792 -17.0769 -164.009 30.1781 1.99991 17.409 1.20603 13.5263 174.309 13.8587 -12.1155 164.692 -8.12946 -0.801582 -0.996011 20.4079 -12.484 -176.788 151.96 -19.1887 -179.096 -43.6466 -1.16781 -1.58429 22.1761 -15.2122 -177.9 
7.3262 12.1309 -24.4538 72.6122 -75.8018 -12.9413 -1.82851 -9.25784 -3.09148 -4.99963 -2.82593 2.7237 -1.33973 -0.054199 -1.90426 17.7938 -1.55986 -2.33083 9.17241 -22.1582 -170.746 32.3903 2.51133 18.6318 1.63459 18.0767 174.198 -156.523 -16.2777 -163.562 29.0728 1.76331 16.7928 1.22437 13.7185 174.305 15.0187 -11.4815 165.439 -8.1258 -0.812206 -0.996316 20.1434 -10.5457 -177.686 151.864 -25.8674 179.768 -35.6878 -0.993426 -1.40996 22.3007 -17.095 -177.359 
7.28304 12.1133 -24.6973 76.662 -73.9378 -8.2375 -2.61531 -10.0589 -4.49579 -4.70977 -3.087 3.13701 -1.19422 -0.155758 -1.1714 17.5858 -1.83366 -3.01977 9.06575 -22.4114 -171.419 32.4845 2.53418 18.6836 1.61459 17.8786 174.204 -155.897 -15.138 -163.508 28.0625 1.55736 16.2271 1.35286 15.0873 174.27 15.562 -11.2752 165.746 -8.04297 -0.796517 -0.996851 19.13 -8.30646 -178.851 151.588 -32.7809 179.045 -31.2757 -0.944179 -1.20798 23.609 -20.5599 -175.993 
7.22651 12.1015 -24.9357 79.2105 -71.52 -5.19752 -2.79258 -10.7925 -5.19664 -4.98002 -3.31776 3.16043 -0.116066 -0.0138942 -0.293318 16.076 -1.63072 -4.33606 9.42869 -23.0151 -172.07 32.2795 2.4845 18.5709 1.60722 17.8045 174.207 -155.172 -13.8632 -163.489 27.7508 1.49617 16.0519 1.52774 16.9179 174.218 16.2152 -11.7435 166.23 -8.09528 -0.806649 -0.997262 17.8448 -6.43782 -179.752 151.883 -36.5385 179.196 -28.9131 -0.863846 -1.14194 22.9188 -19.4979 -176.722 
7.17619 12.0989 -25.1871 80.8126 -68.5767 -3.31238 -2.62147 -11.2603 -5.54064 -4.75191 -3.44293 3.33409 -0.701053 0.23484 0.458971 15.8326 -1.22018 -5.98032 9.08102 -24.0472 -172.816 31.6984 2.34612 18.2507 1.63079 18.0309 174.199 -154.873 -13.2601 -163.283 27.599 1.46676 15.9666 1.44564 16.0655 174.244 16.9882 -12.9191 167.178 -8.14594 -0.821583 -0.998008 16.8846 -4.19734 179.33 152.862 -36.3375 179.613 -28.9655 -0.839708 -1.1412 21.5996 -15.3317 -178.582 
7.11993 12.1004 -25.4561 82.6624 -64.8288 -1.40249 -2.83332 -11.6961 -5.58001 -4.80895 -3.57318 3.31733 -1.13614 0.923262 1.50794 15.957 0.123297 -7.21319 9.55994 -25.7008 -173.28 30.9399 2.17054 17.8315 1.66996 18.4304 174.186 -154.098 -12.8786 -163.155 27.6956 1.48549 16.0209 1.34003 14.9562 174.276 17.6173 -14.0791 168.588 -8.24321 -0.84028 -0.997927 14.8521 -2.51819 178.594 154.52 -34.8845 -179.707 -30.0103 -0.848395 -1.18914 21.7593 -10.2242 179.702 
7.0599 12.1482 -25.7481 84.1894 -60.4391 -0.148845 -3.14497 -11.8984 -5.29853 -4.65278 -3.63117 3.39922 -1.61052 1.92498 2.85304 16.299 1.95855 -9.34362 9.99447 -27.0698 -173.812 30.2643 2.01937 17.4566 1.78632 19.6055 174.145 -153.875 -11.9375 -162.94 27.5096 1.4495 15.9163 1.44559 16.0681 174.245 17.626 -15.0616 170.501 -9.44873 -0.886853 -0.998072 12.2554 0.20911 177.618 156.467 -35.7251 -179.348 -29.9359 -0.792464 -1.20225 20.4751 -7.90104 178.56 
6.99516 12.2076 -26.0424 84.3407 -55.9983 -0.827261 -2.47315 -11.8382 -3.85529 -4.53086 -3.57833 3.37612 -2.12507 3.26661 4.48999 16.5526 4.45118 -12.1107 9.93456 -27.6857 -174.462 29.5781 1.86978 17.0749 1.87756 20.5134 174.11 -154.056 -11.7469 -162.293 27.3631 1.42137 15.8339 1.5048 16.6857 174.227 15.5195 -14.0302 172.419 -17.071 -0.897361 -0.996883 12.7474 2.7379 176.809 159.355 -33.4384 -179.079 -29.4776 -0.763626 -1.16664 19.9137 -8.19332 178.565 
6.93384 12.2638 -26.3327 84.8162 -51.4699 -0.66443 -2.18799 -11.3386 -3.24909 -4.7284 -3.42527 3.20683 -2.47962 4.96554 5.83156 17.5257 7.82636 -13.1776 11.1797 -28.5008 -174.092 29.9137 1.94233 17.2617 1.90441 20.7779 174.1 -153.849 -12.6048 -161.614 27.5681 1.46058 15.9493 1.47782 16.4064 174.236 13.625 -13.3567 174.041 -22.9225 -0.908232 -1.0404 11.259 4.76178 176.402 162.028 -30.9796 -178.55 -29.4848 -0.756408 -1.13295 19.9198 -8.65925 178.703 
6.87519 12.3278 -26.6137 85.4682 -46.8829 -0.382338 -1.8923 -10.4104 -2.60274 -5.31194 -3.15083 2.73634 -2.59745 6.66288 7.10898 18.1345 11.287 -13.8568 12.8314 -30.2781 -172.794 30.7145 2.11955 17.7066 1.7253 18.9905 174.166 -154.034 -12.5623 -161.218 28.3113 1.60728 16.3665 1.52484 16.8956 174.221 11.8904 -12.7974 175.849 -27.5483 -0.903255 -1.13332 9.49092 6.45847 176.252 164.418 -29.3621 -178.631 -29.0766 -0.721276 -1.09861 19.4081 -10.4595 179.092 
